<?xml version="1.0" standalone="no"?>
<!DOCTYPE svg PUBLIC "-//W3C//DTD SVG 20010904//EN"
 "http://www.w3.org/TR/2001/REC-SVG-20010904/DTD/svg10.dtd">
<svg version="1.0" xmlns="http://www.w3.org/2000/svg"
 width="1024.000000pt" height="1024.000000pt" viewBox="0 0 1024.000000 1024.000000"
 preserveAspectRatio="xMidYMid meet">
<metadata>
Created by potrace 1.14, written by Peter Selinger 2001-2017
</metadata>
<g transform="translate(0.000000,1024.000000) scale(0.100000,-0.100000)"
fill="#000000" stroke="none">
<path d="M1099 10056 c-2 -2 -22 -6 -44 -9 -145 -18 -366 -101 -478 -179 -188
-133 -322 -285 -412 -468 -174 -357 -157 -779 47 -1120 243 -407 702 -629
1168 -564 255 35 480 146 665 329 137 135 228 275 285 438 27 78 34 104 55
202 15 66 14 301 -1 389 -77 464 -443 854 -894 955 -25 5 -58 13 -75 16 -32 7
-310 16 -316 11z m331 -560 c103 -37 172 -80 249 -157 76 -76 122 -148 159
-251 23 -65 26 -88 27 -203 0 -168 -23 -245 -116 -381 -38 -55 -140 -148 -202
-184 -243 -140 -563 -104 -765 87 -141 134 -206 286 -205 478 1 251 131 461
358 579 139 72 344 85 495 32z"/>
<path d="M3275 9135 c-117 -30 -200 -154 -189 -281 10 -98 93 -199 187 -225
32 -9 871 -12 3372 -11 3020 0 3334 1 3373 16 135 49 204 190 164 332 -16 54
-80 126 -139 155 l-48 23 -3338 1 c-2431 1 -3349 -2 -3382 -10z"/>
<path d="M1178 6295 c-2 -1 -37 -5 -78 -9 -503 -41 -944 -449 -1035 -957 -69
-386 45 -755 320 -1035 162 -165 356 -275 570 -324 28 -7 59 -14 70 -17 39
-10 311 -12 370 -2 171 27 328 88 477 186 267 175 455 461 512 783 17 98 15
332 -4 420 -52 240 -156 434 -320 601 -185 187 -395 296 -655 338 -62 10 -221
21 -227 16z m162 -540 c65 -10 177 -56 241 -98 47 -31 127 -109 176 -170 30
-38 75 -142 95 -219 26 -102 21 -247 -11 -348 -71 -226 -293 -416 -519 -446
-291 -37 -558 104 -681 361 -46 94 -61 155 -66 250 -12 260 126 493 360 609
132 66 254 84 405 61z"/>
<path d="M3263 5367 c-65 -24 -119 -73 -149 -133 -70 -144 -6 -308 143 -364
50 -19 112 -19 3376 -19 3667 -1 3382 -6 3465 62 154 124 112 383 -74 450 -46
16 -232 17 -3389 16 -2530 0 -3348 -3 -3372 -12z"/>
<path d="M1099 2525 c-2 -1 -23 -5 -46 -8 -166 -23 -333 -88 -494 -193 -144
-94 -309 -283 -392 -449 -127 -255 -155 -565 -76 -850 22 -77 21 -75 77 -195
113 -241 357 -469 612 -570 159 -64 262 -82 450 -83 190 0 351 38 523 123 111
55 198 120 303 224 177 177 288 393 332 651 12 70 8 326 -7 395 -79 376 -327
695 -656 845 -109 50 -176 71 -320 101 -32 7 -301 15 -306 9z m316 -555 c381
-119 565 -553 387 -910 -173 -345 -622 -463 -942 -247 -180 122 -291 337 -285
552 6 184 60 310 190 440 91 92 181 144 297 175 98 26 254 21 353 -10z"/>
<path d="M3288 1607 c-82 -20 -153 -80 -185 -156 -20 -45 -22 -146 -3 -191 23
-60 77 -117 136 -146 l56 -27 3302 -1 c1815 -1 3330 2 3365 6 133 15 223 110
235 246 8 98 -58 207 -153 254 l-46 22 -3337 0 c-1836 1 -3352 -3 -3370 -7z"/>
</g>
</svg>
